<?xml version="1.0" encoding="utf-8"?>
<!-- Generator: Adobe Illustrator 16.0.0, SVG Export Plug-In . SVG Version: 6.00 Build 0)  -->
<!DOCTYPE svg PUBLIC "-//W3C//DTD SVG 1.1//EN" "http://www.w3.org/Graphics/SVG/1.1/DTD/svg11.dtd">
<svg version="1.1" id="Layer_1" xmlns="http://www.w3.org/2000/svg" xmlns:xlink="http://www.w3.org/1999/xlink" x="0px" y="0px"
	 width="841.89px" height="595.28px" viewBox="0 0 841.89 595.28" enable-background="new 0 0 841.89 595.28" xml:space="preserve">
<g>
	<circle fill-rule="evenodd" clip-rule="evenodd" fill="#F05D85" cx="420.945" cy="301.613" r="273.719"/>
	
		<circle fill-rule="evenodd" clip-rule="evenodd" fill="none" stroke="#FFFFFF" stroke-width="2" stroke-miterlimit="10" cx="420.945" cy="301.613" r="257.719"/>
</g>
<path fill="#FFFFFF" d="M547.237,350.111c54.717,0,99.074-44.382,99.074-99.129c0-54.748-44.357-99.129-99.074-99.129H408.332
	l36.8,48.003h102.105c28.221,0,51.099,22.89,51.099,51.126c0,28.235-22.878,51.127-51.099,51.127h-36.419l-0.031-0.043H452.15
	l123.854,170.078h58.637l-88.867-122.033H547.237z"/>
<polygon fill="#FDC010" points="422.107,199.897 385.255,151.853 350.973,151.853 387.825,199.897 "/>
<path fill="#FFFFFF" d="M384.896,302.066h-49.56v0.043H295.24c-28.221,0-51.097-22.892-51.097-51.127
	c0-28.237,22.876-51.126,51.097-51.126h70.848l-36.801-48.003H295.24c-54.717,0-99.074,44.381-99.074,99.129
	c0,54.747,44.357,99.129,99.074,99.129h43.096v-0.123h45.949c21.314,0,38.594,17.287,38.594,38.608
	c0,21.323-17.279,38.608-38.594,38.608H177.687c8.258,15.962,18.043,31.003,29.159,44.939h178.051
	c46.948,0,85.008-38.072,85.008-85.039C469.904,340.141,431.845,302.066,384.896,302.066z"/>
<g>
	<path fill="#FDC010" stroke="#FDC010" stroke-miterlimit="10" d="M301.946,263.197c0,1.585-0.384,3.069-1.153,4.45
		c-0.769,1.382-1.816,2.57-3.14,3.566c-1.325,0.996-2.852,1.789-4.582,2.377c-1.73,0.589-3.579,0.884-5.543,0.884
		c-1.538,0-3.023-0.183-4.454-0.548c-1.432-0.366-2.735-0.884-3.909-1.555c-1.176-0.67-2.211-1.472-3.108-2.407
		c-0.897-0.935-1.602-1.971-2.115-3.109l2.371-0.914c0.811,1.87,2.264,3.352,4.357,4.449c2.093,1.097,4.378,1.646,6.857,1.646
		c1.623,0,3.161-0.233,4.614-0.701c1.452-0.466,2.712-1.097,3.781-1.889c1.067-0.792,1.912-1.727,2.532-2.804
		c0.619-1.076,0.929-2.225,0.929-3.444c0-1.422-0.343-2.661-1.025-3.718c-0.684-1.056-1.592-2.001-2.724-2.834
		c-1.132-0.833-2.435-1.594-3.909-2.286c-1.474-0.69-3.002-1.381-4.582-2.072c-1.496-0.65-2.979-1.311-4.454-1.981
		c-1.474-0.671-2.767-1.412-3.877-2.225c-2.777-1.99-4.166-4.368-4.166-7.131c0-1.381,0.342-2.661,1.025-3.84
		c0.683-1.178,1.612-2.204,2.788-3.078c1.175-0.874,2.542-1.564,4.102-2.073c1.559-0.507,3.214-0.762,4.966-0.762
		c1.239,0,2.467,0.143,3.685,0.427c1.218,0.285,2.371,0.691,3.46,1.219c1.089,0.529,2.061,1.199,2.916,2.012
		c0.854,0.813,1.538,1.728,2.05,2.743l-2.307,1.036c-0.727-1.503-1.987-2.712-3.781-3.626c-1.794-0.915-3.803-1.372-6.024-1.372
		c-1.41,0-2.746,0.193-4.005,0.579c-1.261,0.387-2.35,0.915-3.268,1.585c-0.919,0.67-1.656,1.443-2.211,2.316
		c-0.556,0.875-0.833,1.819-0.833,2.834c0,1.097,0.298,2.083,0.897,2.956c0.598,0.875,1.399,1.656,2.403,2.347
		c1.003,0.691,2.168,1.352,3.493,1.981c1.324,0.63,2.712,1.25,4.165,1.859c1.623,0.691,3.236,1.412,4.838,2.164
		c1.602,0.752,3.044,1.595,4.326,2.53C300.408,257.184,301.946,259.988,301.946,263.197z"/>
	<path fill="#FDC010" stroke="#FDC010" stroke-miterlimit="10" d="M317.376,231.502h2.563v42.667h-2.563V231.502z"/>
	<path fill="#FDC010" stroke="#FDC010" stroke-miterlimit="10" d="M374.396,274.169v-36.754l-15.893,36.754h-2.756l-15.892-36.754
		v36.754h-2.563v-42.667h2.563h0.192l17.11,39.437l17.046-39.437h0.192h2.563v42.667H374.396z"/>
	<path fill="#FDC010" stroke="#FDC010" stroke-miterlimit="10" d="M393.862,274.169h-2.755l16.854-42.667h2.756l16.79,42.667h-2.691
		l-4.102-10.362h-22.749L393.862,274.169z M409.306,234.976l-10.381,26.393h20.827L409.306,234.976z"/>
	<path fill="#FDC010" stroke="#FDC010" stroke-miterlimit="10" d="M468.056,272.645c-2.691,1.219-5.575,1.829-8.651,1.829
		c-2.99,0-5.799-0.568-8.427-1.707c-2.627-1.137-4.913-2.682-6.856-4.632c-1.944-1.951-3.482-4.236-4.614-6.857
		c-1.133-2.621-1.698-5.434-1.698-8.442c0-2.966,0.565-5.77,1.698-8.412c1.132-2.641,2.67-4.937,4.614-6.888
		c1.943-1.95,4.229-3.494,6.856-4.632c2.628-1.137,5.437-1.707,8.427-1.707c3.076,0,5.96,0.609,8.651,1.829
		c2.691,1.219,5.02,2.886,6.985,4.998l-1.858,1.585c-1.795-1.869-3.867-3.332-6.217-4.389c-2.35-1.056-4.87-1.585-7.562-1.585
		c-2.649,0-5.126,0.509-7.434,1.524c-2.307,1.016-4.315,2.388-6.023,4.114c-1.709,1.728-3.066,3.759-4.069,6.095
		c-1.004,2.337-1.506,4.826-1.506,7.467c0,2.642,0.502,5.13,1.506,7.467c1.003,2.337,2.36,4.379,4.069,6.125
		c1.708,1.748,3.717,3.119,6.023,4.115c2.308,0.996,4.784,1.493,7.434,1.493c2.691,0,5.212-0.528,7.562-1.585
		c2.35-1.056,4.422-2.519,6.217-4.389l1.858,1.585C473.075,269.76,470.747,271.426,468.056,272.645z"/>
	<path fill="#FDC010" stroke="#FDC010" stroke-miterlimit="10" d="M510.209,252.439c1.239-0.508,2.308-1.198,3.204-2.073
		c0.897-0.873,1.612-1.889,2.147-3.047c0.533-1.158,0.801-2.408,0.801-3.749c0-1.341-0.268-2.591-0.801-3.749
		c-0.535-1.158-1.25-2.174-2.147-3.048c-0.896-0.874-1.965-1.564-3.204-2.072c-1.239-0.508-2.563-0.762-3.973-0.762h-12.561v40.229
		h-2.563v-42.667h15.124c1.751,0,3.396,0.315,4.935,0.945c1.538,0.63,2.884,1.493,4.037,2.59s2.061,2.377,2.724,3.84
		c0.661,1.463,0.993,3.027,0.993,4.693c0,1.667-0.332,3.23-0.993,4.693c-0.663,1.463-1.561,2.733-2.691,3.81
		c-1.133,1.077-2.468,1.941-4.006,2.59c-1.538,0.65-3.162,0.975-4.87,0.975l12.561,18.53h-3.012l-14.291-20.968h4.614
		C507.646,253.201,508.97,252.948,510.209,252.439z"/>
	<path fill="#FDC010" stroke="#FDC010" stroke-miterlimit="10" d="M575.56,252.835c0,3.008-0.567,5.821-1.698,8.442
		c-1.133,2.621-2.671,4.907-4.614,6.857c-1.944,1.95-4.229,3.495-6.856,4.632c-2.628,1.138-5.415,1.707-8.363,1.707
		c-2.99,0-5.799-0.568-8.427-1.707c-2.627-1.137-4.913-2.682-6.856-4.632c-1.944-1.951-3.482-4.236-4.614-6.857
		c-1.133-2.621-1.698-5.434-1.698-8.442c0-2.966,0.565-5.77,1.698-8.412c1.132-2.641,2.67-4.937,4.614-6.888
		c1.943-1.95,4.229-3.494,6.856-4.632c2.628-1.137,5.437-1.707,8.427-1.707c2.948,0,5.735,0.569,8.363,1.707
		c2.627,1.138,4.912,2.682,6.856,4.632c1.943,1.951,3.481,4.247,4.614,6.888C574.992,247.066,575.56,249.87,575.56,252.835z
		 M554.027,272.036c2.605,0,5.063-0.497,7.37-1.493c2.307-0.996,4.314-2.367,6.023-4.115c1.708-1.747,3.064-3.789,4.069-6.125
		c1.003-2.336,1.506-4.825,1.506-7.467c0-2.641-0.503-5.129-1.506-7.467c-1.005-2.336-2.361-4.368-4.069-6.095
		c-1.709-1.727-3.717-3.098-6.023-4.114c-2.308-1.015-4.765-1.524-7.37-1.524c-2.649,0-5.126,0.509-7.434,1.524
		c-2.307,1.016-4.315,2.388-6.023,4.114c-1.709,1.728-3.066,3.759-4.069,6.095c-1.004,2.337-1.506,4.826-1.506,7.467
		c0,2.642,0.502,5.13,1.506,7.467c1.003,2.337,2.36,4.379,4.069,6.125c1.708,1.748,3.717,3.119,6.023,4.115
		C548.901,271.539,551.378,272.036,554.027,272.036z"/>
</g>
</svg>
