<?xml version="1.0" encoding="utf-8"?>
<!-- Generator: Adobe Illustrator 16.0.0, SVG Export Plug-In . SVG Version: 6.00 Build 0)  -->
<!DOCTYPE svg PUBLIC "-//W3C//DTD SVG 1.1//EN" "http://www.w3.org/Graphics/SVG/1.1/DTD/svg11.dtd">
<svg version="1.1" id="Layer_1" xmlns="http://www.w3.org/2000/svg" xmlns:xlink="http://www.w3.org/1999/xlink" x="0px" y="0px"
	 width="841.89px" height="595.28px" viewBox="0 0 841.89 595.28" enable-background="new 0 0 841.89 595.28" xml:space="preserve">
<polygon fill="#FDC010" points="270.239,242.753 257.214,225.773 245.098,225.773 258.122,242.753 "/>
<path fill="#F05D85" d="M257.087,278.863h-17.515v0.013h-14.171c-9.974,0-18.06-8.09-18.06-18.067c0-9.981,8.086-18.07,18.06-18.07
	h25.039l-13.006-16.966h-12.033c-19.338,0-35.016,15.685-35.016,35.036c0,19.347,15.677,35.034,35.016,35.034h15.231v-0.045h16.239
	c7.533,0,13.641,6.111,13.641,13.646c0,7.536-6.107,13.646-13.641,13.646h-73.016c2.917,5.641,6.376,10.956,10.305,15.881h62.928
	c16.593,0,30.044-13.455,30.044-30.056C287.131,292.318,273.68,278.863,257.087,278.863z"/>
<g>
	<g>
		<path fill="#FFFFFF" stroke="#FFFFFF" stroke-miterlimit="10" d="M309.135,278.271h3.749v60.703h-3.749V278.271z"/>
		<path fill="#FFFFFF" stroke="#FFFFFF" stroke-miterlimit="10" d="M392.201,338.974v-52.292l-23.246,52.292h-4.03l-23.246-52.292
			v52.292h-3.749v-60.703h3.749h0.281l25.027,56.107l24.933-56.107h0.281h3.75v60.703H392.201z"/>
		<path fill="#FFFFFF" stroke="#FFFFFF" stroke-miterlimit="10" d="M420.34,338.974h-4.03l24.651-60.703h4.031l24.558,60.703h-3.937
			l-5.999-14.742h-33.275L420.34,338.974z M442.93,283.213l-15.185,37.549h30.463L442.93,283.213z"/>
		<path fill="#FFFFFF" stroke="#FFFFFF" stroke-miterlimit="10" d="M528.527,336.806c-3.937,1.734-8.154,2.602-12.654,2.602
			c-4.374,0-8.482-0.809-12.325-2.428c-3.844-1.618-7.188-3.816-10.029-6.591c-2.845-2.775-5.095-6.027-6.749-9.756
			c-1.656-3.729-2.484-7.731-2.484-12.011c0-4.22,0.828-8.209,2.484-11.967c1.654-3.757,3.904-7.024,6.749-9.799
			c2.842-2.775,6.186-4.971,10.029-6.59c3.843-1.618,7.951-2.428,12.325-2.428c4.5,0,8.718,0.867,12.654,2.602
			c3.938,1.734,7.342,4.105,10.217,7.111l-2.718,2.255c-2.625-2.659-5.656-4.74-9.092-6.244c-3.438-1.502-7.124-2.254-11.062-2.254
			c-3.875,0-7.498,0.724-10.873,2.168c-3.374,1.446-6.312,3.397-8.811,5.854c-2.5,2.458-4.484,5.348-5.952,8.672
			c-1.469,3.325-2.203,6.865-2.203,10.623c0,3.759,0.734,7.299,2.203,10.623c1.468,3.325,3.452,6.23,5.952,8.715
			c2.499,2.486,5.437,4.438,8.811,5.854c3.375,1.418,6.998,2.125,10.873,2.125c3.938,0,7.624-0.751,11.062-2.255
			c3.436-1.503,6.467-3.584,9.092-6.243l2.718,2.254C535.869,332.701,532.465,335.071,528.527,336.806z"/>
		<path fill="#FFFFFF" stroke="#FFFFFF" stroke-miterlimit="10" d="M589.85,308.059c1.812-0.723,3.374-1.705,4.687-2.948
			s2.358-2.688,3.14-4.336s1.172-3.426,1.172-5.333c0-1.908-0.391-3.686-1.172-5.333c-0.781-1.647-1.827-3.092-3.14-4.336
			c-1.313-1.242-2.875-2.225-4.687-2.948c-1.813-0.722-3.75-1.084-5.812-1.084h-18.372v57.234h-3.749v-60.703h22.121
			c2.562,0,4.968,0.448,7.218,1.344c2.249,0.897,4.218,2.125,5.904,3.686c1.688,1.561,3.015,3.382,3.984,5.463
			c0.968,2.082,1.453,4.308,1.453,6.678c0,2.371-0.485,4.596-1.453,6.677c-0.97,2.081-2.282,3.889-3.938,5.42
			c-1.656,1.532-3.608,2.762-5.857,3.686c-2.25,0.926-4.626,1.388-7.124,1.388l18.372,26.362h-4.406l-20.902-29.831h6.749
			C586.1,309.143,588.036,308.782,589.85,308.059z"/>
		<path fill="#FFFFFF" stroke="#FFFFFF" stroke-miterlimit="10" d="M685.102,308.622c0,4.279-0.829,8.281-2.484,12.011
			c-1.656,3.729-3.906,6.98-6.749,9.756c-2.844,2.774-6.186,4.973-10.029,6.591c-3.843,1.619-7.92,2.428-12.232,2.428
			c-4.374,0-8.482-0.809-12.325-2.428c-3.844-1.618-7.188-3.816-10.029-6.591c-2.845-2.775-5.095-6.027-6.749-9.756
			c-1.656-3.729-2.484-7.731-2.484-12.011c0-4.22,0.828-8.209,2.484-11.967c1.654-3.757,3.904-7.024,6.749-9.799
			c2.842-2.775,6.186-4.971,10.029-6.59c3.843-1.618,7.951-2.428,12.325-2.428c4.313,0,8.39,0.81,12.232,2.428
			c3.844,1.619,7.186,3.815,10.029,6.59c2.843,2.775,5.093,6.042,6.749,9.799C684.272,300.413,685.102,304.402,685.102,308.622z
			 M653.606,335.938c3.812,0,7.405-0.707,10.78-2.125c3.374-1.416,6.311-3.367,8.811-5.854c2.499-2.484,4.483-5.39,5.952-8.715
			c1.468-3.324,2.203-6.864,2.203-10.623c0-3.758-0.735-7.298-2.203-10.623c-1.469-3.324-3.453-6.214-5.952-8.672
			c-2.5-2.457-5.437-4.408-8.811-5.854c-3.375-1.444-6.969-2.168-10.78-2.168c-3.875,0-7.498,0.724-10.873,2.168
			c-3.374,1.446-6.312,3.397-8.811,5.854c-2.5,2.458-4.484,5.348-5.952,8.672c-1.469,3.325-2.203,6.865-2.203,10.623
			c0,3.759,0.734,7.299,2.203,10.623c1.468,3.325,3.452,6.23,5.952,8.715c2.499,2.486,5.437,4.438,8.811,5.854
			C646.108,335.231,649.731,335.938,653.606,335.938z"/>
	</g>
</g>
</svg>
